<svg width="547" height="156" fill="none" xmlns="http://www.w3.org/2000/svg"><g clip-path="url(#clip0_360_23023)"><path d="M34.583 54.597H6.153a6.156 6.156 0 00-4.35 1.801A6.144 6.144 0 000 60.745v89.118c0 1.626.646 3.185 1.796 4.336A6.145 6.145 0 006.133 156h45.271a7.833 7.833 0 005.537-2.291l16.811-16.766a6.147 6.147 0 018.7 0l16.78 16.766A7.827 7.827 0 00104.76 156h45.271a6.155 6.155 0 004.344-1.797 6.157 6.157 0 001.332-1.991 6.148 6.148 0 00.467-2.349V6.147a6.144 6.144 0 00-3.82-5.687A6.157 6.157 0 00149.99 0h-17.236C78.066 0 89.2 54.597 34.583 54.597z" fill="#193C6C"/><path d="M69.53 0H6.163a6.166 6.166 0 00-4.358 1.804A6.154 6.154 0 000 6.156V29.12a6.152 6.152 0 003.793 5.734 6.166 6.166 0 002.37.473h20.55c26.934 0 37.553-14.232 46.676-28.141A4.61 4.61 0 0069.529 0z" fill="#50AF47"/><path d="M218.751 74.29l18.034 22.984a1.245 1.245 0 00.985.478 1.25 1.25 0 00.985-.478l18.024-22.983a2.506 2.506 0 011.96-.95h9.729a2.486 2.486 0 012.485 2.484v58.241a2.486 2.486 0 01-2.485 2.473h-8.931a2.484 2.484 0 01-2.486-2.473V99.848a1.246 1.246 0 00-.834-1.175 1.251 1.251 0 00-1.388.388l-15.155 18.643a2.48 2.48 0 01-1.935.925 2.487 2.487 0 01-1.934-.925L220.65 98.708a1.244 1.244 0 00-2.223.777v34.601a2.48 2.48 0 01-2.485 2.473h-8.83a2.473 2.473 0 01-2.475-2.473V75.825a2.481 2.481 0 012.475-2.483h9.739a2.482 2.482 0 011.95.949m76.968 38.083a19.44 19.44 0 002.738 6.259 14.133 14.133 0 004.91 4.451 16.998 16.998 0 0014.72 0 14.139 14.139 0 004.9-4.451 19.231 19.231 0 002.738-6.259c.577-2.338.865-4.738.858-7.146a31.717 31.717 0 00-.858-7.429 19.631 19.631 0 00-2.738-6.42 13.973 13.973 0 00-4.9-4.491 17.007 17.007 0 00-14.72 0 13.896 13.896 0 00-4.91 4.491 19.836 19.836 0 00-2.738 6.42 31.665 31.665 0 00-.859 7.429 29.419 29.419 0 00.859 7.146zm-12.68-19.703a30.113 30.113 0 015.84-10.094 26.675 26.675 0 019.355-6.772 33.144 33.144 0 0125.025 0 26.884 26.884 0 019.316 6.772 30.288 30.288 0 015.839 10.094 37.766 37.766 0 012.021 12.567 36.553 36.553 0 01-2.021 12.315 29.535 29.535 0 01-5.839 9.942 26.928 26.928 0 01-9.316 6.632 33.651 33.651 0 01-25.025 0 26.724 26.724 0 01-9.355-6.632 29.358 29.358 0 01-5.84-9.942 36.297 36.297 0 01-2.02-12.315 37.532 37.532 0 012.02-12.567zm96.302 33.078a18.853 18.853 0 003.9-.404 9.67 9.67 0 003.274-1.322 6.851 6.851 0 002.263-2.524 8.791 8.791 0 00.838-4.037c0-3.24-.919-4.775-2.748-6.168a11.744 11.744 0 00-7.264-2.079h-12.669a2.48 2.48 0 00-2.475 2.483v11.608a2.48 2.48 0 002.475 2.483l12.406-.04zm-.798-27.254a10.008 10.008 0 006.062-1.766c1.596-1.181 2.395-2.705 2.395-5.36a7.373 7.373 0 00-.799-3.623 5.921 5.921 0 00-2.131-2.221 8.906 8.906 0 00-3.031-1.1 19.853 19.853 0 00-3.587-.313h-10.517a2.486 2.486 0 00-2.475 2.483v9.417a2.481 2.481 0 002.475 2.483h11.608zm1.768-25.234c2.769-.02 5.532.246 8.244.797a17.832 17.832 0 016.426 2.655 12.226 12.226 0 014.041 4.865 16.987 16.987 0 011.465 7.43 12.79 12.79 0 01-4.809 10.82 2.487 2.487 0 00-.864 2.113 2.482 2.482 0 001.228 1.924 13.785 13.785 0 014.576 4.169 19.316 19.316 0 011.011 18.411 16.212 16.212 0 01-5.052 5.713 22.243 22.243 0 01-7.173 3.271 32.525 32.525 0 01-8.284 1.06h-28.087a2.49 2.49 0 01-1.754-.724 2.48 2.48 0 01-.731-1.749V80.821a7.453 7.453 0 012.186-5.288 7.472 7.472 0 015.29-2.191l22.287-.081zm48.162 2.695v58.231a2.48 2.48 0 01-2.475 2.483h-8.942a2.483 2.483 0 01-2.485-2.483V80.952a7.471 7.471 0 017.476-7.48h3.951a2.487 2.487 0 012.475 2.484zm27.822 0v46.553a2.484 2.484 0 002.486 2.483h25.864a2.487 2.487 0 012.475 2.483v6.712a2.488 2.488 0 01-2.475 2.484h-39.776a2.485 2.485 0 01-2.485-2.484v-58.23a2.486 2.486 0 012.485-2.483h8.941a2.482 2.482 0 012.485 2.483zm89.948-.131v6.722a2.48 2.48 0 01-1.534 2.294 2.49 2.49 0 01-.951.19h-28.44a2.486 2.486 0 00-2.476 2.482v8.005A2.482 2.482 0 00515.368 98h26.581a2.486 2.486 0 012.485 2.473v6.833a2.482 2.482 0 01-2.485 2.484h-26.581a2.484 2.484 0 00-2.476 2.483v10.093a2.485 2.485 0 002.476 2.484h29.187a2.478 2.478 0 011.758.727 2.476 2.476 0 01.728 1.756v6.722a2.484 2.484 0 01-2.486 2.473h-43.089a2.484 2.484 0 01-2.486-2.473v-58.23a2.482 2.482 0 012.486-2.483h42.342a2.49 2.49 0 012.296 1.533c.125.3.189.624.189.95zM310.305 60.159l-3.606 6.36a1.335 1.335 0 00-.002 1.349 1.341 1.341 0 001.174.669h6.243c.346-.004.677-.138.93-.374l5.617-6.359a1.346 1.346 0 00.306-1.461 1.346 1.346 0 00-1.236-.84h-8.264a1.355 1.355 0 00-1.162.676m-85.824-28.07h-15.155a1.18 1.18 0 01-1.161-1.413c.159-.759.376-1.504.646-2.23a10.938 10.938 0 011.788-3.15 8.463 8.463 0 012.728-2.18 7.837 7.837 0 013.678-.828 7.746 7.746 0 013.627.828 8.528 8.528 0 012.717 2.18 10.22 10.22 0 011.738 3.119c.266.766.452 1.558.556 2.362a1.169 1.169 0 01-1.172 1.312h.01zm2.01-7.803a10.854 10.854 0 00-9.466-4.824 11.958 11.958 0 00-5.627 1.251 11.032 11.032 0 00-3.87 3.311 14.028 14.028 0 00-2.213 4.663 19.748 19.748 0 00-.717 5.33 20.846 20.846 0 00.717 5.562 13.482 13.482 0 002.213 4.643 10.214 10.214 0 003.87 3.139c1.763.806 3.688 1.2 5.627 1.15 3.485 0 6.173-.857 8.082-2.563a12.58 12.58 0 003.506-5.713 1.188 1.188 0 00-.599-1.404 1.194 1.194 0 00-.532-.13h-.93a1.16 1.16 0 00-1.111.787 9.695 9.695 0 01-2.657 4.33 8.15 8.15 0 01-5.759 1.918 7.907 7.907 0 01-4.112-1.01 9.2 9.2 0 01-2.829-2.563 10.395 10.395 0 01-1.626-3.483 17.283 17.283 0 01-.445-2.483 1.192 1.192 0 011.182-1.282h18.761a1.192 1.192 0 001.193-1.211 22.264 22.264 0 00-.546-4.461 14.58 14.58 0 00-2.112-4.957zm25.491 10.628a9.45 9.45 0 00-2.506-1.463 12.765 12.765 0 00-2.859-.767l-4.475-1.01a21.597 21.597 0 01-1.869-.555 9.327 9.327 0 01-1.839-.858 5.05 5.05 0 01-1.415-1.312 3.123 3.123 0 01-.606-1.918 4.036 4.036 0 01.586-2.24 4.566 4.566 0 011.546-1.464 7.08 7.08 0 012.111-.798c.744-.16 1.503-.24 2.264-.242.917-.007 1.831.108 2.717.343a6.592 6.592 0 012.273 1.09 5.548 5.548 0 011.637 1.898c.264.531.445 1.1.536 1.686a1.19 1.19 0 001.161 1.01h1.011a1.185 1.185 0 001.133-.844 1.17 1.17 0 00.039-.5 8.987 8.987 0 00-.768-2.553 8.074 8.074 0 00-2.162-2.766 8.895 8.895 0 00-3.152-1.655 13.512 13.512 0 00-3.86-.535 16.18 16.18 0 00-3.657.424 11.12 11.12 0 00-3.415 1.292 7.172 7.172 0 00-2.425 2.402 6.575 6.575 0 00-.939 3.573 6.795 6.795 0 00.586 2.958 5.86 5.86 0 001.626 2.018c.74.58 1.56 1.05 2.435 1.393.986.406 1.999.743 3.031 1.01l4.314.959c.748.181 1.485.393 2.213.646a8.32 8.32 0 011.95.928 4.563 4.563 0 011.353 1.393c.347.616.522 1.313.506 2.02a4.034 4.034 0 01-.718 2.422 5.948 5.948 0 01-1.808 1.665 8.416 8.416 0 01-2.435.909c-.835.169-1.684.257-2.536.262a9.036 9.036 0 01-5.627-1.726 6.285 6.285 0 01-2.364-4.159 1.195 1.195 0 00-1.162-1.01h-1.011a1.184 1.184 0 00-1.144.865 1.18 1.18 0 00-.027.509 9.079 9.079 0 003.273 5.985 12.666 12.666 0 007.87 2.292 18.496 18.496 0 003.89-.424 11.254 11.254 0 003.546-1.413 8.346 8.346 0 002.586-2.564 6.876 6.876 0 001.011-3.806 6.712 6.712 0 00-.697-3.149 7.244 7.244 0 00-1.789-2.24m28.945 3.008h-.93a1.174 1.174 0 00-1.152 1.01 9.39 9.39 0 01-.717 2.19 8.517 8.517 0 01-1.768 2.473 7.775 7.775 0 01-2.455 1.625 7.372 7.372 0 01-2.93.586 8.473 8.473 0 01-4.213-1.01 9.216 9.216 0 01-3.031-2.665 11.802 11.802 0 01-1.818-3.755 15.233 15.233 0 010-8.58 11.754 11.754 0 011.818-3.764 9.216 9.216 0 013.031-2.665 8.474 8.474 0 014.213-1.01 7.358 7.358 0 015.233 1.757 8.877 8.877 0 012.344 4.038 1.161 1.161 0 001.122.827h1.01a1.186 1.186 0 001.015-.414 1.182 1.182 0 00.238-1.07 9.488 9.488 0 00-3.415-5.672 12.03 12.03 0 00-7.496-2.342 12.717 12.717 0 00-5.577 1.17 12.267 12.267 0 00-4.042 3.15 13.533 13.533 0 00-2.505 4.603 19.074 19.074 0 000 11.254 13.532 13.532 0 002.505 4.603 11.693 11.693 0 004.042 3.12 12.86 12.86 0 005.577 1.15 10.806 10.806 0 007.678-2.796 11.999 11.999 0 003.435-6.39 1.19 1.19 0 00-.257-1.008 1.185 1.185 0 00-.955-.415zm26.803.433a11.98 11.98 0 01-1.809 3.755 9.31 9.31 0 01-3.03 2.665 9.326 9.326 0 01-8.436 0 9.303 9.303 0 01-3.031-2.665 11.96 11.96 0 01-1.768-3.755 15.234 15.234 0 010-8.58 11.93 11.93 0 011.808-3.765 9.313 9.313 0 013.031-2.664 9.321 9.321 0 018.436 0 9.313 9.313 0 013.031 2.664 11.93 11.93 0 011.808 3.765 15.234 15.234 0 010 8.58h-.04zm.657-14.525a12.117 12.117 0 00-4.042-3.15 13.836 13.836 0 00-11.113 0 12.262 12.262 0 00-4.041 3.15 13.535 13.535 0 00-2.506 4.603 18.867 18.867 0 000 11.254 13.537 13.537 0 002.324 4.573 11.68 11.68 0 004.041 3.119 14.066 14.066 0 0011.114 0 11.604 11.604 0 004.041-3.119 13.533 13.533 0 002.505-4.603 18.867 18.867 0 000-11.254 13.532 13.532 0 00-2.505-4.603m35.989 13.324a8.073 8.073 0 01-2.85 6.34 9.098 9.098 0 01-3.03 1.705 11.46 11.46 0 01-3.678.585 7.071 7.071 0 01-2.293-.373 5.686 5.686 0 01-2.021-1.09 5.318 5.318 0 01-1.364-1.706 4.815 4.815 0 01-.505-2.261 3.985 3.985 0 011.202-3.119 8.094 8.094 0 013.031-1.686c1.351-.406 2.733-.7 4.132-.878a89.915 89.915 0 004.405-.666c.541-.086 1.074-.21 1.597-.373a1.9 1.9 0 001.232-.848h.101l.041 4.37zm5.334 8.58c-1.313 0-1.97-1.423-1.97-2.776V28.334a9.671 9.671 0 00-.909-4.502 7.074 7.074 0 00-2.344-2.695 8.67 8.67 0 00-3.253-1.313 20.16 20.16 0 00-3.627-.343 16.802 16.802 0 00-4.375.535 9.839 9.839 0 00-3.445 1.656 7.828 7.828 0 00-2.314 2.876c-.42.886-.71 1.828-.859 2.796a1.184 1.184 0 00.264.951 1.178 1.178 0 00.898.412h.96a1.181 1.181 0 001.162-1.01 5.466 5.466 0 01.615-2.125 5.464 5.464 0 011.406-1.71 8.449 8.449 0 015.233-1.524c.938-.005 1.875.076 2.798.242a6.32 6.32 0 012.294.878 4.42 4.42 0 011.546 1.726c.402.88.592 1.84.555 2.806a4.565 4.565 0 01-.293 1.807c-.167.432-.45.81-.818 1.09a3.336 3.336 0 01-1.334.566c-.535.1-1.162.191-1.869.262a465.6 465.6 0 00-5.364.666c-1.627.2-3.223.604-4.749 1.201a7.954 7.954 0 00-3.344 2.453 7.06 7.06 0 00-1.283 4.502 8.383 8.383 0 00.717 3.593 6.847 6.847 0 002.021 2.504 7.892 7.892 0 002.93 1.443c1.177.31 2.389.463 3.607.454 1.176.016 2.349-.11 3.495-.373a9.758 9.758 0 002.607-1.07 8.91 8.91 0 002.071-1.726 22.585 22.585 0 001.839-2.372h.111a24.83 24.83 0 00.131 2.685c.07.543.26 1.063.556 1.524a2.85 2.85 0 001.202 1.01 5.06 5.06 0 002.021.342h1.141a1.154 1.154 0 001.011-1.15v-.545a1.072 1.072 0 00-.311-.76 1.06 1.06 0 00-.76-.31m-30.544-35.4h-1.01a1.173 1.173 0 00-1.172 1.181V47.26a1.17 1.17 0 001.182 1.191h1.01a1.185 1.185 0 001.183-1.18V11.566a1.188 1.188 0 00-.347-.835 1.178 1.178 0 00-.836-.346" fill="#193C6C"/></g><defs><clipPath id="clip0_360_23023"><path fill="#fff" d="M0 0h547v156H0z"/></clipPath></defs></svg>